PathFileType	4	(X/Y/Z)	72_2_108_p1_0-329_filt_butterworth.trc
DataRate	CameraRate	NumFrames	NumMarkers	Units	OrigDataRate	OrigDataStartFrame	OrigNumFrames
60.0	60.0	7	27	m	60.0	0	329
Frame#	Time	RHip			RKnee			RAnkle			RBigToe			RSmallToe			RHeel			LHip			LKnee			LAnkle			LBigToe			LSmallToe			LHeel			Neck			Head			Nose			RShoulder			RElbow			RWrist			RThumb			RIndex			RPinky			LShoulder			LElbow			LWrist			LThumb			LIndex			LPinky			
		X1	Y1	Z1	X2	Y2	Z2	X3	Y3	Z3	X4	Y4	Z4	X5	Y5	Z5	X6	Y6	Z6	X7	Y7	Z7	X8	Y8	Z8	X9	Y9	Z9	X10	Y10	Z10	X11	Y11	Z11	X12	Y12	Z12	X13	Y13	Z13	X14	Y14	Z14	X15	Y15	Z15	X16	Y16	Z16	X17	Y17	Z17	X18	Y18	Z18	X19	Y19	Z19	X20	Y20	Z20	X21	Y21	Z21	X22	Y22	Z22	X23	Y23	Z23	X24	Y24	Z24	X25	Y25	Z25	X26	Y26	Z26	X27	Y27	Z27	
0	0.0	0.22956441589147586	0.9211509137320271	0.5617722033344215	0.22330585554437632	0.48587029007615856	0.6011124871244703	0.20390634702432409	0.08352853681726999	0.6196137148699549	0.1657634267367032	0.06476895551807828	0.44977389823340164	0.23864477940663034	0.07482940505873897	0.45703289318991347	0.17979542738005333	-0.007652930052494129	0.7154028663179643	-0.010403311157151264	0.9065684002291182	0.6298939748667874	-0.010545328275568012	0.4857368873545496	0.6410848155229928	-0.005247866004774565	0.10738600948277963	0.643318090853502	-0.006223236542784063	0.10992595792179334	0.447903043338007	-0.05930073436512767	0.09773627248579952	0.49706079815060533	0.0035183348531811895	0.03133769130109071	0.6776876311311585	0.11581696652908477	1.564654896819978	0.6089316472845611	0.10548842986461716	1.8239369720668193	0.557522295116213	0.07371673434650955	1.693091592799765	0.48945183691072314	0.28627692820393325	1.4596268435164919	0.5776830504019969	0.3428435819725579	1.1770884478683001	0.528688156351749	0.20332304904662848	0.9823164703620313	0.4252505861099235	0.07232420577546647	0.936435274441505	0.434533473749964	0.07057430388975143	0.9084270098795264	0.44475983440675787	0.10804888838058033	0.8727385910667399	0.46128950701341587	-0.059908182207304886	1.4710411801556298	0.6139831277992118	-0.10790453019805708	1.1733043984609068	0.609650771170893	-0.00928971497896304	0.9984083696374442	0.4422911765267816	0.09966098755256203	0.9610397957669419	0.39793934329510305	0.10844062391648257	0.9321016408197128	0.3827608836287175	0.0748655794692322	0.8893910057869666	0.4301702581493952	
1	0.0166666666666666	0.22992175404783644	0.9214542292222844	0.5590994022965198	0.2239872431762162	0.48407303926751966	0.6042642224386567	0.20565903766553947	0.08147875139658206	0.6218722751202485	0.16652769491900843	0.06412059142660152	0.45099311004450415	0.23964273675693085	0.0749914749573675	0.45655542114534126	0.1811055275271157	-0.009509445568286264	0.7180699138015186	-0.010711801305369232	0.9065613284666451	0.6288781169362471	-0.011244348743430221	0.4855216756863079	0.6409556273190063	-0.004689764148735096	0.10786448461671963	0.6449506776779942	-0.007832094388661441	0.11384206563940732	0.4422358475174615	-0.06288140555166143	0.09314954034920801	0.5036847629091928	0.0032430271327132964	0.0309793064465742	0.6774728424557007	0.1159854537515296	1.5629415318871047	0.6091540907217353	0.10588694068649619	1.8239531209721798	0.5579092147760372	0.07366258840677227	1.6940156093251693	0.48932888479744974	0.28312617441234217	1.4600340804394927	0.5752783193944723	0.3432330487325817	1.1747101548110774	0.5290318168108239	0.20360553001477225	0.9841577645846008	0.42555891240078164	0.07246318941540149	0.934608415436647	0.43419734176677827	0.0709883836216107	0.9050933488166959	0.44485225077042145	0.10819278063414507	0.8744246997407121	0.46185090381151933	-0.057796318875189455	1.4707858893918808	0.615338154287377	-0.1078740927734698	1.1730626334252896	0.6095510214459035	-0.008842932532894015	1.0013370569379538	0.4433777236392018	0.0986311136391504	0.9598297495797542	0.40157455860202235	0.10642176701694515	0.9315063892891893	0.3883784405632215	0.07514165231582685	0.8917879475088377	0.4305045925100985	
2	0.0333333333333333	0.23021507785324533	0.9216763103447799	0.5568657061393814	0.22458247454483557	0.48246758722318667	0.6069064112429605	0.20717427553720796	0.07969719374713616	0.6237799177143889	0.16751292182372401	0.0628976804639597	0.4529234498891942	0.23998212618964904	0.07501895860827625	0.4564347720578877	0.1822027143341808	-0.011063756261426298	0.7203241133845533	-0.010992398287338877	0.9065303864642534	0.6280541654008542	-0.011837085045308508	0.4853803032092589	0.6408418546913476	-0.004321988338423507	0.10826963713989596	0.6460236292861383	-0.00913007917723831	0.11638869634027406	0.43856671865243213	-0.06529049375077112	0.09057970234417057	0.5081217019273636	0.003016144469403849	0.030509265540225556	0.6773233261219114	0.11610346772625908	1.5618143600204437	0.6093021779607555	0.10590987189768812	1.8240455662783863	0.5577800779781372	0.07362612215793529	1.6944742497462584	0.4892249011080581	0.2813197804675318	1.4604268127210847	0.5729369380412938	0.34347276383417297	1.1733143021741943	0.5292582811625247	0.20377847729268647	0.9852317494891885	0.4257124657903538	0.07255756947610557	0.93338020350173	0.43395392019497037	0.07126245692495864	0.9027447607895405	0.44485519274442836	0.10828456543857799	0.875563252791376	0.46220567200109086	-0.0558641809399012	1.4704117667117014	0.6175518628882023	-0.10785855555971813	1.1729769789976696	0.6094663724539048	-0.008697067853472311	1.0034069791951596	0.4438819646814512	0.09780553366399238	0.9587634446507791	0.4047061950063078	0.10507030699256455	0.9306060389424625	0.3918814349872073	0.07531616501290328	0.8933143258976438	0.4307331104294198	
3	0.05	0.23044994768048718	0.9218271067099509	0.5550374522473631	0.22509888781295123	0.48105019682151157	0.6090693402001881	0.20846603047713932	0.07816913332194707	0.6253627775218886	0.16862200624432053	0.061305107213501596	0.455300006238833	0.23985067736974516	0.07492767983988928	0.45660341394733084	0.1831037064856114	-0.012340915572754548	0.722197079617738	-0.011245216394251275	0.9064789640543919	0.6274034251190008	-0.012330965185198552	0.4853031765090254	0.640743107678614	-0.004125053318927848	0.10860396277147509	0.6465932473886582	-0.010142032642589397	0.11782589716321826	0.4365188788164974	-0.06673489156322444	0.08962264805655565	0.5107473196190804	0.0028355533548926086	0.029946196048084565	0.6772337178800572	0.116178915016345	1.5611721768925046	0.6093914238379133	0.10571681962890558	1.824224810027456	0.5573853553246975	0.07360634095486111	1.694591415809961	0.4891461372253081	0.2805758094437703	1.4607918566197684	0.5707415935253594	0.3435853607255263	1.172717947744854	0.5293806363659466	0.20386447222908	0.9856989505625483	0.42574683153212467	0.07261673200224182	0.9326471662516247	0.4337875525067448	0.07142248970210419	0.9012204698569545	0.4447954077023844	0.10833431948125662	0.8762516474088106	0.46238587037341183	-0.05415858764236749	1.4699710319820114	0.6202670055607505	-0.10785150737789859	1.1730382368779764	0.6093983751462078	-0.008749331827287968	1.0047462591875223	0.44397346958013717	0.09717027181796313	0.957849010886813	0.4073356279347638	0.10427612916048236	0.9295684222980038	0.39369285889306416	0.07540997975495449	0.894135205116515	0.4308741732020167	
4	0.0666666666666666	0.23063192390234658	0.9219165679282347	0.5535809780048218	0.22554382114327998	0.47981713094084566	0.6107832959731465	0.20954827232314333	0.07687983957402957	0.6266469894122605	0.16975784697426846	0.05954775625857667	0.45785786756478175	0.23943611996217953	0.0747334624806318	0.4569938148334484	0.18382522266577017	-0.013365976943110683	0.7237204270517431	-0.011470369917297496	0.9064104510695082	0.6269072009490793	-0.012733417167096039	0.48528070217123076	0.6406589963194034	-0.0040794738353361745	0.10886995723062304	0.6467158336962782	-0.010892796518789426	0.11841371524706441	0.43571555008323587	-0.0674214915897891	0.08987426707223192	0.5119373203983062	0.0026991202808193363	0.02930872543619191	0.6771986534804054	0.11621970218485919	1.560913778175796	0.6094373431895015	0.1054673800108612	1.8245013542614048	0.5569755174179025	0.07360225015241216	1.6944910092632055	0.4890988445319595	0.28061232441532613	1.4611160283940448	0.5687749730295666	0.3435934728548365	1.172738149310258	0.5294119693801844	0.20388609617266168	0.9857198932914346	0.425697594879579	0.07265006303847339	0.9323058313012015	0.4336825821743059	0.07149444785535623	0.9003597000778324	0.44469964301789505	0.1083521194495585	0.8765872807830937	0.46242355771976384	-0.052726358223515665	1.4695159050697313	0.6231263342640846	-0.10784653704910774	1.173237208766139	0.6093485804741229	-0.008896935340931018	1.0054830196935043	0.44382180826186707	0.09671135229193782	0.9570945781946524	0.4094642328141948	0.1039291188378402	0.9285613718742841	0.39423570427318155	0.07544395873647344	0.8944156493285818	0.4309461421225469	
5	0.0833333333333333	0.23076656689160815	0.9219546436100681	0.5524626207961142	0.22592461269853864	0.47876465245954064	0.6120785652246424	0.21043497091302968	0.07581458195639845	0.6276586882550169	0.17082334280703876	0.05783051218253057	0.46033212233840237	0.23892618363191304	0.07445213035892453	0.45753844273601957	0.1843839815590199	-0.014163993813334807	0.7249257702372384	-0.011667973147668613	0.9063282373420513	0.626546797749482	-0.013051868994996652	0.485303286781498	0.6405891306523137	-0.004165764632736539	0.10907011623650603	0.646447689919722	-0.011407212539913149	0.1184121977306341	0.4357799545262267	-0.06755718643123297	0.09093044897706445	0.5120674086790046	0.0026047117388237934	0.02861548117058738	0.6772127686732234	0.11623373579487375	1.5609379595428263	0.609455450851813	0.10532114917426788	1.8248857010222501	0.5568010348599381	0.0736128551054511	1.6942969318529202	0.48908927441077304	0.28114738845646814	1.4613861443024139	0.567119763736815	0.3435197336702991	1.1731919646576086	0.5293653671643347	0.2038659304721408	0.9854551031626004	0.4256003410862025	0.07266694862946355	0.9322527262653291	0.43362335266985924	0.07150429728702384	0.9000016755110667	0.4445946460645673	0.1083480420308614	0.8766675501043024	0.46235079283142927	-0.05161431192427321	1.4690986058417796	0.6257726009572688	-0.10783723339444234	1.1735646963620856	0.6093185393889621	-0.009037089280991518	1.0057453834915664	0.443596550653249	0.09641479927679181	0.9565082764810922	0.411093385071406	0.10391916134177992	0.9277527201897735	0.39393296311994974	0.07543896415195331	0.8943207226969732	0.43096737848566874	
6	0.1	0.2308594370210565	0.9219512833658883	0.551648718005597	0.226248600641444	0.47788902425594826	0.6129854346174828	0.2111400960846082	0.07495862992206809	0.6284240089196707	0.171701223765256	0.056413932299169474	0.4624188818738897	0.2386959204911469	0.07390640996253572	0.45858034817460985	0.18479670184972327	-0.014760019624266804	0.7258447237248937	-0.011838140376555704	0.9062357127044691	0.6263035203786007	-0.013293748672896073	0.48536133692545	0.6405331207159424	-0.0043644404562169946	0.10920693550829014	0.645845117769714	-0.011746096340900052	0.11829932444488848	0.43617213591627507	-0.06743196357010979	0.09233026233565607	0.5115146776119202	0.0025501942205457414	0.027885090717311874	0.6772706992087785	0.1162072476492072	1.5610936412340353	0.6096074615306363	0.10553189866753321	1.8252359729832046	0.5573605493816257	0.07364843571928739	1.6941155518041064	0.48914488870205397	0.28182870517418906	1.4615972883156956	0.565804177399863	0.3433752257893342	1.1738984386751945	0.5292047918476082	0.20384060454028927	0.9851016798477407	0.4255067962351615	0.07267314978027864	0.9323178776082486	0.4335783114780769	0.07147836668930901	0.899861170205582	0.44451589556530835	0.1083383537895252	0.8766535165862813	0.46218784192771617	-0.05084706722750136	1.4687822514627622	0.6277333868180314	-0.10780788529527745	1.1741617810148939	0.6093021753131608	-0.00897612792378229	1.005745208985655	0.4434186948805149	0.09623912595735429	0.9560674614423982	0.4123212961892232	0.10410412343228417	0.9276318496986602	0.39340839895351293	0.07541745097147112	0.894077402067419	0.4309633293539311	
